<mxfile host="app.diagrams.net" agent="Mozilla/5.0 (Macintosh; Intel Mac OS X 10_15_7) AppleWebKit/537.36 (KHTML, like Gecko) Chrome/139.0.0.0 Safari/537.36" version="28.1.1">
  <diagram name="ページ1" id="kAxwEe0a9V28F2ipQOVm">
    <mxGraphModel dx="1123" dy="551" grid="0" gridSize="10" guides="1" tooltips="1" connect="1" arrows="1" fold="1" page="1" pageScale="1" pageWidth="827" pageHeight="1169" math="0" shadow="0">
      <root>
        <mxCell id="0" />
        <mxCell id="1" parent="0" />
        <mxCell id="93Ka5zx83QHKN0TviFHg-1" value="" style="rounded=1;whiteSpace=wrap;html=1;fillColor=#dae8fc;strokeColor=#6c8ebf;" parent="1" vertex="1">
          <mxGeometry x="410" y="71" width="120" height="170" as="geometry" />
        </mxCell>
        <mxCell id="93Ka5zx83QHKN0TviFHg-2" value="" style="rounded=1;whiteSpace=wrap;html=1;fillColor=#dae8fc;strokeColor=#6c8ebf;" parent="1" vertex="1">
          <mxGeometry x="570" y="71" width="120" height="170" as="geometry" />
        </mxCell>
        <mxCell id="93Ka5zx83QHKN0TviFHg-3" value="" style="rounded=1;whiteSpace=wrap;html=1;fillColor=#f8cecc;strokeColor=#b85450;" parent="1" vertex="1">
          <mxGeometry x="410" y="351" width="120" height="170" as="geometry" />
        </mxCell>
        <mxCell id="93Ka5zx83QHKN0TviFHg-4" value="" style="rounded=1;whiteSpace=wrap;html=1;fillColor=#f8cecc;strokeColor=#b85450;" parent="1" vertex="1">
          <mxGeometry x="250" y="351" width="120" height="170" as="geometry" />
        </mxCell>
        <mxCell id="93Ka5zx83QHKN0TviFHg-5" value="" style="rounded=1;whiteSpace=wrap;html=1;fillColor=#d5e8d4;strokeColor=#82b366;" parent="1" vertex="1">
          <mxGeometry x="90" y="71" width="120" height="170" as="geometry" />
        </mxCell>
        <mxCell id="93Ka5zx83QHKN0TviFHg-6" value="" style="rounded=1;whiteSpace=wrap;html=1;fillColor=#dae8fc;strokeColor=#6c8ebf;" parent="1" vertex="1">
          <mxGeometry x="250" y="71" width="120" height="170" as="geometry" />
        </mxCell>
        <mxCell id="93Ka5zx83QHKN0TviFHg-7" style="edgeStyle=orthogonalEdgeStyle;rounded=0;orthogonalLoop=1;jettySize=auto;html=1;exitX=0.5;exitY=1;exitDx=0;exitDy=0;entryX=0.5;entryY=0;entryDx=0;entryDy=0;fillColor=#f8cecc;strokeColor=#b85450;" parent="1" source="93Ka5zx83QHKN0TviFHg-9" target="93Ka5zx83QHKN0TviFHg-22" edge="1">
          <mxGeometry relative="1" as="geometry">
            <Array as="points">
              <mxPoint x="310" y="281" />
              <mxPoint x="470" y="281" />
            </Array>
          </mxGeometry>
        </mxCell>
        <mxCell id="93Ka5zx83QHKN0TviFHg-8" style="edgeStyle=orthogonalEdgeStyle;rounded=0;orthogonalLoop=1;jettySize=auto;html=1;exitX=0.25;exitY=1;exitDx=0;exitDy=0;entryX=0.5;entryY=0;entryDx=0;entryDy=0;fillColor=#d5e8d4;strokeColor=#82b366;" parent="1" source="93Ka5zx83QHKN0TviFHg-9" target="93Ka5zx83QHKN0TviFHg-31" edge="1">
          <mxGeometry relative="1" as="geometry">
            <Array as="points">
              <mxPoint x="290" y="261" />
              <mxPoint x="230" y="261" />
              <mxPoint x="230" y="41" />
              <mxPoint x="150" y="41" />
            </Array>
          </mxGeometry>
        </mxCell>
        <mxCell id="93Ka5zx83QHKN0TviFHg-9" value="Pod#1" style="rounded=0;whiteSpace=wrap;html=1;" parent="1" vertex="1">
          <mxGeometry x="270" y="191" width="80" height="40" as="geometry" />
        </mxCell>
        <mxCell id="93Ka5zx83QHKN0TviFHg-10" style="edgeStyle=orthogonalEdgeStyle;rounded=0;orthogonalLoop=1;jettySize=auto;html=1;exitX=0.5;exitY=1;exitDx=0;exitDy=0;entryX=0.5;entryY=0;entryDx=0;entryDy=0;fillColor=#f8cecc;strokeColor=#b85450;" parent="1" source="93Ka5zx83QHKN0TviFHg-12" target="93Ka5zx83QHKN0TviFHg-22" edge="1">
          <mxGeometry relative="1" as="geometry" />
        </mxCell>
        <mxCell id="93Ka5zx83QHKN0TviFHg-11" style="edgeStyle=orthogonalEdgeStyle;rounded=0;orthogonalLoop=1;jettySize=auto;html=1;exitX=0.25;exitY=1;exitDx=0;exitDy=0;entryX=0.5;entryY=0;entryDx=0;entryDy=0;fillColor=#d5e8d4;strokeColor=#82b366;" parent="1" source="93Ka5zx83QHKN0TviFHg-12" target="93Ka5zx83QHKN0TviFHg-31" edge="1">
          <mxGeometry relative="1" as="geometry">
            <Array as="points">
              <mxPoint x="450" y="261" />
              <mxPoint x="230" y="261" />
              <mxPoint x="230" y="41" />
              <mxPoint x="150" y="41" />
            </Array>
          </mxGeometry>
        </mxCell>
        <mxCell id="93Ka5zx83QHKN0TviFHg-12" value="Pod#2" style="rounded=0;whiteSpace=wrap;html=1;" parent="1" vertex="1">
          <mxGeometry x="430" y="191" width="80" height="40" as="geometry" />
        </mxCell>
        <mxCell id="93Ka5zx83QHKN0TviFHg-13" style="edgeStyle=orthogonalEdgeStyle;rounded=0;orthogonalLoop=1;jettySize=auto;html=1;exitX=0.5;exitY=1;exitDx=0;exitDy=0;entryX=0.5;entryY=0;entryDx=0;entryDy=0;fillColor=#f8cecc;strokeColor=#b85450;" parent="1" source="93Ka5zx83QHKN0TviFHg-15" target="93Ka5zx83QHKN0TviFHg-22" edge="1">
          <mxGeometry relative="1" as="geometry">
            <Array as="points">
              <mxPoint x="630" y="281" />
              <mxPoint x="470" y="281" />
            </Array>
          </mxGeometry>
        </mxCell>
        <mxCell id="93Ka5zx83QHKN0TviFHg-14" style="edgeStyle=orthogonalEdgeStyle;rounded=0;orthogonalLoop=1;jettySize=auto;html=1;exitX=0.25;exitY=1;exitDx=0;exitDy=0;entryX=0.5;entryY=0;entryDx=0;entryDy=0;fillColor=#d5e8d4;strokeColor=#82b366;" parent="1" source="93Ka5zx83QHKN0TviFHg-15" target="93Ka5zx83QHKN0TviFHg-31" edge="1">
          <mxGeometry relative="1" as="geometry">
            <mxPoint x="90" y="51" as="targetPoint" />
            <Array as="points">
              <mxPoint x="610" y="261" />
              <mxPoint x="230" y="261" />
              <mxPoint x="230" y="41" />
              <mxPoint x="150" y="41" />
            </Array>
          </mxGeometry>
        </mxCell>
        <mxCell id="93Ka5zx83QHKN0TviFHg-15" value="Pod#3" style="rounded=0;whiteSpace=wrap;html=1;" parent="1" vertex="1">
          <mxGeometry x="590" y="191" width="80" height="40" as="geometry" />
        </mxCell>
        <mxCell id="93Ka5zx83QHKN0TviFHg-16" value="Service#1" style="rounded=0;whiteSpace=wrap;html=1;" parent="1" vertex="1">
          <mxGeometry x="270" y="81" width="80" height="40" as="geometry" />
        </mxCell>
        <mxCell id="93Ka5zx83QHKN0TviFHg-17" value="Service#2" style="rounded=0;whiteSpace=wrap;html=1;" parent="1" vertex="1">
          <mxGeometry x="430" y="81" width="80" height="40" as="geometry" />
        </mxCell>
        <mxCell id="93Ka5zx83QHKN0TviFHg-18" value="Service#3" style="rounded=0;whiteSpace=wrap;html=1;" parent="1" vertex="1">
          <mxGeometry x="590" y="81" width="80" height="40" as="geometry" />
        </mxCell>
        <mxCell id="93Ka5zx83QHKN0TviFHg-19" value="" style="endArrow=classic;html=1;rounded=0;exitX=0.5;exitY=1;exitDx=0;exitDy=0;entryX=0.5;entryY=0;entryDx=0;entryDy=0;dashed=1;" parent="1" source="93Ka5zx83QHKN0TviFHg-17" target="93Ka5zx83QHKN0TviFHg-12" edge="1">
          <mxGeometry width="50" height="50" relative="1" as="geometry">
            <mxPoint x="430" y="261" as="sourcePoint" />
            <mxPoint x="590" y="141" as="targetPoint" />
          </mxGeometry>
        </mxCell>
        <mxCell id="93Ka5zx83QHKN0TviFHg-20" value="" style="endArrow=classic;html=1;rounded=0;exitX=0.5;exitY=1;exitDx=0;exitDy=0;dashed=1;" parent="1" edge="1">
          <mxGeometry width="50" height="50" relative="1" as="geometry">
            <mxPoint x="629.5" y="121" as="sourcePoint" />
            <mxPoint x="630" y="191" as="targetPoint" />
          </mxGeometry>
        </mxCell>
        <mxCell id="93Ka5zx83QHKN0TviFHg-21" value="" style="endArrow=classic;html=1;rounded=0;exitX=0.5;exitY=1;exitDx=0;exitDy=0;dashed=1;" parent="1" edge="1">
          <mxGeometry width="50" height="50" relative="1" as="geometry">
            <mxPoint x="309.5" y="121" as="sourcePoint" />
            <mxPoint x="310" y="191" as="targetPoint" />
          </mxGeometry>
        </mxCell>
        <mxCell id="93Ka5zx83QHKN0TviFHg-22" value="Service&lt;div&gt;(Manager)&lt;/div&gt;" style="rounded=0;whiteSpace=wrap;html=1;" parent="1" vertex="1">
          <mxGeometry x="430" y="361" width="80" height="40" as="geometry" />
        </mxCell>
        <mxCell id="93Ka5zx83QHKN0TviFHg-23" style="edgeStyle=orthogonalEdgeStyle;rounded=0;orthogonalLoop=1;jettySize=auto;html=1;exitX=1;exitY=0.25;exitDx=0;exitDy=0;entryX=0.5;entryY=0;entryDx=0;entryDy=0;" parent="1" source="93Ka5zx83QHKN0TviFHg-25" target="93Ka5zx83QHKN0TviFHg-18" edge="1">
          <mxGeometry relative="1" as="geometry">
            <mxPoint x="710" y="101" as="targetPoint" />
            <Array as="points">
              <mxPoint x="710" y="481" />
              <mxPoint x="710" y="61" />
              <mxPoint x="630" y="61" />
            </Array>
          </mxGeometry>
        </mxCell>
        <mxCell id="93Ka5zx83QHKN0TviFHg-24" style="edgeStyle=orthogonalEdgeStyle;rounded=0;orthogonalLoop=1;jettySize=auto;html=1;exitX=1;exitY=0.75;exitDx=0;exitDy=0;entryX=0.5;entryY=0;entryDx=0;entryDy=0;" parent="1" source="93Ka5zx83QHKN0TviFHg-25" target="93Ka5zx83QHKN0TviFHg-16" edge="1">
          <mxGeometry relative="1" as="geometry">
            <mxPoint x="320" y="71" as="targetPoint" />
            <Array as="points">
              <mxPoint x="730" y="501" />
              <mxPoint x="730" y="41" />
              <mxPoint x="310" y="41" />
            </Array>
          </mxGeometry>
        </mxCell>
        <mxCell id="93Ka5zx83QHKN0TviFHg-25" value="Pod&lt;div&gt;(LLM)&lt;/div&gt;" style="rounded=0;whiteSpace=wrap;html=1;" parent="1" vertex="1">
          <mxGeometry x="430" y="471" width="80" height="40" as="geometry" />
        </mxCell>
        <mxCell id="93Ka5zx83QHKN0TviFHg-26" style="edgeStyle=orthogonalEdgeStyle;rounded=0;orthogonalLoop=1;jettySize=auto;html=1;exitX=1;exitY=0.5;exitDx=0;exitDy=0;" parent="1" source="93Ka5zx83QHKN0TviFHg-29" target="93Ka5zx83QHKN0TviFHg-17" edge="1">
          <mxGeometry relative="1" as="geometry">
            <mxPoint x="470" y="71" as="targetPoint" />
            <mxPoint x="510" y="541" as="sourcePoint" />
            <Array as="points">
              <mxPoint x="720" y="491" />
              <mxPoint x="720" y="51" />
              <mxPoint x="470" y="51" />
            </Array>
          </mxGeometry>
        </mxCell>
        <mxCell id="93Ka5zx83QHKN0TviFHg-27" value="Service&lt;div&gt;(mongoDB)&lt;/div&gt;" style="rounded=0;whiteSpace=wrap;html=1;" parent="1" vertex="1">
          <mxGeometry x="270" y="361" width="80" height="40" as="geometry" />
        </mxCell>
        <mxCell id="93Ka5zx83QHKN0TviFHg-28" style="edgeStyle=orthogonalEdgeStyle;rounded=0;orthogonalLoop=1;jettySize=auto;html=1;exitX=0;exitY=0.5;exitDx=0;exitDy=0;entryX=1;entryY=0.5;entryDx=0;entryDy=0;" parent="1" source="93Ka5zx83QHKN0TviFHg-29" target="93Ka5zx83QHKN0TviFHg-27" edge="1">
          <mxGeometry relative="1" as="geometry">
            <mxPoint x="380" y="341" as="targetPoint" />
          </mxGeometry>
        </mxCell>
        <mxCell id="93Ka5zx83QHKN0TviFHg-29" value="Pod&lt;div&gt;(Manager)&lt;/div&gt;" style="rounded=0;whiteSpace=wrap;html=1;" parent="1" vertex="1">
          <mxGeometry x="430" y="471" width="80" height="40" as="geometry" />
        </mxCell>
        <mxCell id="93Ka5zx83QHKN0TviFHg-30" value="Pod&lt;div&gt;(mongoDB)&lt;/div&gt;" style="rounded=0;whiteSpace=wrap;html=1;" parent="1" vertex="1">
          <mxGeometry x="270" y="471" width="80" height="40" as="geometry" />
        </mxCell>
        <mxCell id="93Ka5zx83QHKN0TviFHg-31" value="Service&lt;div&gt;(LLM)&lt;/div&gt;" style="rounded=0;whiteSpace=wrap;html=1;" parent="1" vertex="1">
          <mxGeometry x="110" y="81" width="80" height="40" as="geometry" />
        </mxCell>
        <mxCell id="93Ka5zx83QHKN0TviFHg-32" value="" style="endArrow=classic;html=1;rounded=0;exitX=0.5;exitY=1;exitDx=0;exitDy=0;entryX=0.5;entryY=0;entryDx=0;entryDy=0;dashed=1;" parent="1" target="93Ka5zx83QHKN0TviFHg-33" edge="1">
          <mxGeometry width="50" height="50" relative="1" as="geometry">
            <mxPoint x="149.28999999999996" y="121" as="sourcePoint" />
            <mxPoint x="149.28999999999996" y="241" as="targetPoint" />
          </mxGeometry>
        </mxCell>
        <mxCell id="93Ka5zx83QHKN0TviFHg-33" value="Pod&lt;div&gt;(LLM)&lt;/div&gt;" style="rounded=0;whiteSpace=wrap;html=1;" parent="1" vertex="1">
          <mxGeometry x="110" y="191" width="80" height="40" as="geometry" />
        </mxCell>
        <mxCell id="93Ka5zx83QHKN0TviFHg-34" value="" style="endArrow=classic;html=1;rounded=0;exitX=0.5;exitY=1;exitDx=0;exitDy=0;dashed=1;" parent="1" target="93Ka5zx83QHKN0TviFHg-30" edge="1">
          <mxGeometry width="50" height="50" relative="1" as="geometry">
            <mxPoint x="309.28999999999996" y="401" as="sourcePoint" />
            <mxPoint x="309.28999999999996" y="521" as="targetPoint" />
          </mxGeometry>
        </mxCell>
        <mxCell id="93Ka5zx83QHKN0TviFHg-35" value="" style="endArrow=classic;html=1;rounded=0;exitX=0.5;exitY=1;exitDx=0;exitDy=0;entryX=0.5;entryY=0;entryDx=0;entryDy=0;dashed=1;" parent="1" edge="1">
          <mxGeometry width="50" height="50" relative="1" as="geometry">
            <mxPoint x="470" y="401" as="sourcePoint" />
            <mxPoint x="470.71000000000004" y="471" as="targetPoint" />
          </mxGeometry>
        </mxCell>
        <mxCell id="93Ka5zx83QHKN0TviFHg-36" value="Agent Process" style="text;html=1;align=center;verticalAlign=middle;whiteSpace=wrap;rounded=0;fontStyle=5" parent="1" vertex="1">
          <mxGeometry x="336" y="134" width="103" height="31" as="geometry" />
        </mxCell>
        <mxCell id="93Ka5zx83QHKN0TviFHg-37" value="Validation&amp;amp;Finalization Process" style="text;html=1;align=center;verticalAlign=middle;whiteSpace=wrap;rounded=0;fontStyle=5" parent="1" vertex="1">
          <mxGeometry x="247" y="315" width="206" height="31" as="geometry" />
        </mxCell>
        <mxCell id="93Ka5zx83QHKN0TviFHg-38" value="LLM Process" style="text;html=1;align=center;verticalAlign=middle;whiteSpace=wrap;rounded=0;fontStyle=5" parent="1" vertex="1">
          <mxGeometry x="40" y="40" width="103" height="31" as="geometry" />
        </mxCell>
      </root>
    </mxGraphModel>
  </diagram>
</mxfile>
